<svg width="800" height="1000" xmlns="http://www.w3.org/2000/svg">
  <defs>
    <linearGradient id="bg3" x1="0%" y1="0%" x2="100%" y2="100%">
      <stop offset="0%" style="stop-color:#1e3a5f;stop-opacity:1" />
      <stop offset="100%" style="stop-color:#3b82f6;stop-opacity:1" />
    </linearGradient>
    <linearGradient id="accent3" x1="0%" y1="0%" x2="100%" y2="100%">
      <stop offset="0%" style="stop-color:#60a5fa;stop-opacity:1" />
      <stop offset="100%" style="stop-color:#3b82f6;stop-opacity:1" />
    </linearGradient>
  </defs>
  
  <rect width="800" height="1000" fill="url(#bg3)"/>
  
  <circle cx="400" cy="350" r="200" fill="rgba(96,165,250,0.1)"/>
  
  <!-- Cutbray Pants Silhouette -->
  <path d="M 320 150 L 480 150 L 480 250 L 520 700 Q 530 800 450 820 L 420 820 L 420 350 L 380 350 L 380 820 L 350 820 Q 270 800 280 700 L 320 250 Z" 
        fill="#1e293b" stroke="url(#accent3)" stroke-width="3"/>
  
  <!-- Waistband -->
  <rect x="320" y="150" width="160" height="50" fill="#0f172a" rx="5"/>
  
  <!-- Belt loops -->
  <rect x="340" y="150" width="10" height="50" fill="#334155"/>
  <rect x="400" y="150" width="10" height="50" fill="#334155"/>
  <rect x="460" y="150" width="10" height="50" fill="#334155"/>
  
  <text x="400" y="100" font-family="Arial, sans-serif" font-size="28" font-weight="bold" 
        fill="url(#accent3)" text-anchor="middle">AGUS COLLECTION</text>
  
  <text x="400" y="880" font-family="Arial, sans-serif" font-size="30" font-weight="bold" 
        fill="#ffffff" text-anchor="middle">Cutbray Korean</text>
  <text x="400" y="915" font-family="Arial, sans-serif" font-size="22" 
        fill="#60a5fa" text-anchor="middle">Highwaist Style</text>
  
  <rect x="250" y="940" width="300" height="50" rx="25" fill="url(#accent3)"/>
  <text x="400" y="973" font-family="Arial, sans-serif" font-size="26" font-weight="bold" 
        fill="#1e3a5f" text-anchor="middle">Rp 75.000 - 99.000</text>
  
  <text x="400" y="130" font-family="Arial, sans-serif" font-size="18" font-weight="bold" 
        fill="#fbbf24" text-anchor="middle">🔥 TRENDING 2026</text>
</svg>