<svg width="800" height="1000" xmlns="http://www.w3.org/2000/svg">
  <defs>
    <linearGradient id="bg4" x1="0%" y1="0%" x2="100%" y2="100%">
      <stop offset="0%" style="stop-color:#1e3a5f;stop-opacity:1" />
      <stop offset="100%" style="stop-color:#0c4a6e;stop-opacity:1" />
    </linearGradient>
    <linearGradient id="denim" x1="0%" y1="0%" x2="100%" y2="100%">
      <stop offset="0%" style="stop-color:#3b82f6;stop-opacity:1" />
      <stop offset="100%" style="stop-color:#1d4ed8;stop-opacity:1" />
    </linearGradient>
  </defs>
  
  <rect width="800" height="1000" fill="url(#bg4)"/>
  
  <circle cx="400" cy="350" r="200" fill="rgba(59,130,246,0.1)"/>
  
  <!-- Denim Cutbray Silhouette -->
  <path d="M 310 150 L 490 150 L 490 250 L 530 700 Q 540 800 460 820 L 430 820 L 430 350 L 370 350 L 370 820 L 340 820 Q 260 800 270 700 L 310 250 Z" 
        fill="#1e40af" stroke="url(#denim)" stroke-width="3"/>
  
  <!-- Denim details -->
  <rect x="310" y="150" width="180" height="50" fill="#1e3a8a" rx="5"/>
  <circle cx="400" cy="175" r="8" fill="#60a5fa"/>
  
  <!-- Pocket outlines -->
  <path d="M 330 200 Q 330 250 360 250 L 360 200 Z" fill="#1e3a8a" opacity="0.5"/>
  <path d="M 470 200 Q 470 250 440 250 L 440 200 Z" fill="#1e3a8a" opacity="0.5"/>
  
  <text x="400" y="100" font-family="Arial, sans-serif" font-size="28" font-weight="bold" 
        fill="url(#denim)" text-anchor="middle">AGUS COLLECTION</text>
  
  <text x="400" y="880" font-family="Arial, sans-serif" font-size="28" font-weight="bold" 
        fill="#ffffff" text-anchor="middle">Cutbray Denim</text>
  <text x="400" y="915" font-family="Arial, sans-serif" font-size="22" 
        fill="#60a5fa" text-anchor="middle">Premium 12oz</text>
  
  <rect x="250" y="940" width="300" height="50" rx="25" fill="url(#denim)"/>
  <text x="400" y="973" font-family="Arial, sans-serif" font-size="26" font-weight="bold" 
        fill="#dbeafe" text-anchor="middle">Rp 89.000 - 135.000</text>
  
  <rect x="50" y="50" width="140" height="50" rx="25" fill="#fbbf24"/>
  <text x="120" y="82" font-family="Arial, sans-serif" font-size="16" font-weight="bold" 
        fill="#1e3a5f" text-anchor="middle">PREMIUM DENIM</text>
</svg>